PathFileType	4	(X/Y/Z)	C:\Git\research_data\Projects\torsion_deformities_healthy_kinematics\simulations\TD01\pre\dynamic_13_l\marker_experimental.trc
DataRate	CameraRate	NumFrames	NumMarkers	Units	OrigDataRate	OrigDataStartFrame	OrigNumFrames
200	200	8	30	mm	200	65	513
Frame#	Time	C7			T10			CLAV			STRN			RBAK			LASI			RASI			SACR			RT1			RT2			RT3			RKNE			RS1			RS2			RS3			RANK			RHEE			RTOE			LT1			LT2			LT3			LKNE			LS1			LS2			LS3			LANK			LHEE			LTOE			RHJC			LHJC		
		X1	Y1	Z1	X2	Y2	Z2	X3	Y3	Z3	X4	Y4	Z4	X5	Y5	Z5	X6	Y6	Z6	X7	Y7	Z7	X8	Y8	Z8	X9	Y9	Z9	X10	Y10	Z10	X11	Y11	Z11	X12	Y12	Z12	X13	Y13	Z13	X14	Y14	Z14	X15	Y15	Z15	X16	Y16	Z16	X17	Y17	Z17	X18	Y18	Z18	X19	Y19	Z19	X20	Y20	Z20	X21	Y21	Z21	X22	Y22	Z22	X23	Y23	Z23	X24	Y24	Z24	X25	Y25	Z25	X26	Y26	Z26	X27	Y27	Z27	X28	Y28	Z28	X29	Y29	Z29	X30	Y30	Z30	

65	0.320000	-455.316162	1255.496826	159.816528	-499.533600	1069.957886	161.090698	-337.115173	1205.975098	161.885956	-290.949646	1072.728149	159.090912	-491.698273	1183.341797	253.360306	-357.357605	868.955688	60.086845	-360.245483	871.406433	263.087158	-521.996094	905.898193	162.723236	-325.380127	694.494995	311.631531	-333.243591	628.968323	322.261627	-284.381592	642.658813	305.084595	-255.451508	500.611481	305.154755	-343.164032	388.508026	317.921906	-384.076447	337.591034	304.655334	-335.760895	322.580566	309.047821	-440.723022	152.505112	271.359863	-479.140472	153.451630	211.562317	-323.681122	83.206139	275.339966	-414.374908	671.027527	26.481573	-446.353088	612.618103	36.213497	-395.712006	610.112610	46.935219	-438.728424	464.041046	72.571312	-503.327484	330.955963	52.185524	-522.827454	269.157318	64.459427	-472.256683	275.030640	69.799568	-542.461426	93.924316	102.480774	-584.510376	89.238152	143.202637	-396.864532	62.117470	134.470276	-424.041080	811.607017	235.680742	-421.927417	809.813296	87.103076	
66	0.325000	-448.834625	1255.103149	159.879532	-493.274872	1069.600586	161.226166	-330.701233	1205.377441	161.876907	-284.738373	1072.024902	158.828171	-485.357758	1182.820312	253.261963	-351.997498	868.331238	59.965427	-353.858063	870.806335	263.065643	-515.994080	905.610107	163.415848	-318.390625	694.659851	311.767609	-325.846863	629.087036	322.480682	-277.159454	643.015442	304.985474	-247.980377	501.014954	304.941772	-332.957306	386.658905	317.794495	-372.164398	334.478180	304.370422	-323.486115	321.001495	309.233795	-422.683685	147.405426	271.574432	-460.826996	147.034286	211.563705	-303.383972	82.048950	276.385071	-410.251953	670.641785	26.782558	-442.571503	612.435547	36.546211	-391.917023	609.636963	47.390324	-436.140869	463.764130	72.759010	-501.658600	331.193787	52.595474	-521.529663	269.533508	64.882881	-470.905151	275.061127	70.128349	-542.308411	94.366165	102.891670	-584.290710	89.888008	143.708618	-396.821014	62.073555	134.474197	-417.907745	811.107155	235.972211	-416.546039	809.295687	87.327765	
67	0.330000	-442.339844	1254.656860	159.955170	-487.006073	1069.192383	161.395279	-324.271332	1204.722534	161.880569	-278.517670	1071.264404	158.581467	-479.003510	1182.248901	253.181580	-346.633636	867.689026	59.865932	-347.455200	870.131897	263.061646	-509.970642	905.276001	164.138672	-311.556580	694.633118	311.903076	-318.666412	629.021973	322.603699	-270.107483	643.172180	304.911774	-240.755920	501.228729	304.676880	-322.844940	384.682343	317.699493	-360.272003	331.256409	304.135010	-311.265900	319.376495	309.427795	-404.464172	142.371857	271.860474	-442.308716	140.719986	211.653534	-283.034210	81.012833	277.428314	-406.160278	670.256531	27.060440	-438.820251	612.256836	36.872921	-388.149658	609.164734	47.793579	-433.525238	463.491058	72.945923	-499.944763	331.441406	53.003582	-520.193970	269.923889	65.293427	-469.519348	275.102631	70.463333	-542.150940	94.825630	103.286369	-584.068665	90.557999	144.195419	-396.788177	62.031651	134.474808	-411.758019	810.541327	236.269827	-411.156761	808.753521	87.561831	
68	0.335000	-435.831787	1254.159912	160.044876	-480.725800	1068.734619	161.598190	-317.825226	1204.013550	161.898499	-272.286469	1070.450928	158.353119	-472.634644	1181.630127	253.121048	-341.261414	867.032043	59.787418	-341.033875	869.387451	263.072632	-503.922516	904.897400	164.890106	-304.889862	694.405640	312.037994	-311.721649	628.765564	322.628510	-263.240753	643.117188	304.867126	-233.780380	501.251160	304.356293	-312.826355	382.587952	317.638794	-348.401306	327.941528	303.952942	-299.105011	317.717163	309.627167	-386.078064	137.441681	272.222260	-423.604034	134.540497	211.838089	-262.647217	80.132393	278.467987	-402.098572	669.874756	27.313557	-435.102966	612.085938	37.191982	-384.414948	608.696533	48.137581	-430.880890	463.222961	73.127510	-498.194092	331.699677	53.403503	-518.829651	270.329651	65.687027	-468.107025	275.155060	70.792831	-541.986755	95.303703	103.657471	-583.843994	91.249931	144.653473	-396.763855	61.992226	134.471298	-405.588022	809.913234	236.571324	-405.754538	808.189511	87.804072	
69	0.340000	-429.310272	1253.614380	160.150070	-474.432617	1068.229004	161.834824	-311.362762	1203.253784	161.932251	-266.043610	1069.588501	158.145294	-466.250153	1180.966797	253.082245	-335.875885	866.362976	59.728703	-334.590912	868.577393	263.096039	-497.846649	904.475952	165.668488	-298.401062	693.968567	312.172211	-305.030273	628.310730	322.554779	-256.574371	642.838135	304.853180	-227.054092	501.082184	303.976868	-302.900848	380.388763	317.610474	-336.555115	324.553436	303.824677	-287.009430	316.037384	309.829254	-367.542480	132.653656	272.663544	-404.734314	128.527496	212.123199	-242.242386	79.445007	279.502197	-398.063324	669.498901	27.541157	-431.419922	611.926086	37.501892	-380.714386	608.232422	48.418362	-428.206696	462.960510	73.299240	-496.414062	331.969513	53.788769	-517.444824	270.751923	66.059570	-466.675323	275.218353	71.105408	-541.813599	95.801285	103.998177	-583.616028	91.965691	145.074142	-396.745880	61.955566	134.462784	-399.393874	809.226605	236.874403	-400.334199	807.606127	88.053118	
70	0.345000	-422.775238	1253.022461	160.272247	-468.124939	1067.677368	162.104996	-304.883698	1202.446655	161.983353	-259.787781	1068.681274	157.960144	-459.849060	1180.261475	253.066956	-330.472046	865.684021	59.688358	-328.123291	867.706421	263.129425	-491.739990	904.013062	166.472046	-292.098633	693.314392	312.305420	-298.607483	627.651062	322.384460	-250.122803	642.322754	304.869202	-220.575165	500.723633	303.536377	-293.068054	378.101196	317.609070	-324.737457	321.115845	303.747314	-274.986847	314.353180	310.031464	-348.878723	128.047287	273.187073	-385.724030	122.712334	212.513626	-221.843552	78.990311	280.529266	-394.048981	669.130676	27.743328	-427.767517	611.779785	37.801136	-377.045471	607.772705	48.635437	-425.500916	462.704041	73.456779	-494.610687	332.251801	54.152996	-516.045898	271.191650	66.406868	-465.230011	275.292725	71.390564	-541.629211	96.319267	104.302490	-583.383667	92.707298	145.450027	-396.732208	61.921738	134.448532	-393.171771	808.485198	237.176973	-394.890489	807.005292	88.307563	
71	0.350000	-416.226501	1252.386597	160.412872	-461.801208	1067.081665	162.408310	-298.387787	1201.595825	162.053345	-253.517517	1067.733887	157.799637	-453.430359	1179.516846	253.076935	-325.044739	864.997192	59.664749	-321.627991	866.779236	263.170441	-485.599609	903.510132	167.298874	-285.988342	692.437134	312.437195	-292.465240	626.781067	322.121826	-243.899033	641.558960	304.912323	-214.339188	500.179474	303.033539	-283.328491	375.744751	317.625824	-312.954224	317.655975	303.714539	-263.046967	312.682312	310.231110	-330.112549	123.662186	273.794220	-366.600952	117.125725	213.012436	-201.478775	78.809219	281.547638	-390.047791	668.771118	27.920885	-424.138214	611.648499	38.088146	-373.401642	607.317383	48.791431	-422.761017	462.453491	73.596169	-492.787781	332.547302	54.490211	-514.636780	271.649628	66.724770	-463.774811	275.378326	71.639275	-541.431335	96.858589	104.565392	-583.145569	93.476860	145.775101	-396.720856	61.890564	134.427887	-386.917969	807.692695	237.476964	-389.418105	806.388721	88.565825	
72	0.355000	-409.664001	1251.709351	160.573395	-455.459778	1066.443726	162.744232	-291.874756	1200.704956	162.143707	-247.231247	1066.750366	157.665665	-446.993103	1178.735718	253.113861	-319.588684	864.303955	59.656063	-315.102234	865.800476	263.216858	-479.422668	902.968506	168.146927	-280.072540	691.332886	312.566986	-286.611450	625.696594	321.773621	-237.914032	640.535767	304.977478	-208.339050	499.455841	302.468445	-273.684235	373.341644	317.649414	-301.213623	314.203644	303.717133	-251.201675	311.044006	310.425598	-311.274384	119.536942	274.484528	-347.396210	111.797401	213.620422	-181.180496	78.942451	282.556213	-386.050262	668.420593	28.075239	-420.521088	611.532471	38.361328	-369.772614	606.866577	48.891457	-419.983490	462.208405	73.714020	-490.946625	332.856567	54.795105	-513.218750	272.126373	67.009369	-462.311035	275.475403	71.844414	-541.217529	97.420212	104.782928	-582.899902	94.276611	146.044830	-396.710175	61.861618	134.400482	-380.629035	806.852669	237.772381	-383.911787	805.757659	88.826196	
